# xmcd CD database file
#
# Track frame offsets:
#	150
#	15674
#	29994
#	45526
#	59798
#	78374
#	91617
#	110288
#	123190
#	138641
#	156461
#
# Disc length: 2387 seconds
#
# Revision: 1
# Processed by: cddbd v1.5.2PL0 Copyright (c) Steve Scherf et al.
# Submitted via: CDex 1.60beta1-cs1
#
DISCID=9209510b
DTITLE=Wildwood Kin - Turning Tides
DYEAR=2017
DGENRE=Folk
TTITLE0=The Author
TTITLE1=Run
TTITLE2=Dove
TTITLE3=Steady My Heart
TTITLE4=Circumstance
TTITLE5=Warrior Daughter
TTITLE6=Hold On
TTITLE7=Taking Hold
TTITLE8=On and On
TTITLE9=The Valley
TTITLE10=Turning Tides
EXTD=YEAR: 2017
EXTT0=
EXTT1=
EXTT2=
EXTT3=
EXTT4=
EXTT5=
EXTT6=
EXTT7=
EXTT8=
EXTT9=
EXTT10=
PLAYORDER=
